<svg width="76" height="76" viewBox="0 0 76 76" fill="none" xmlns="http://www.w3.org/2000/svg">
<rect width="76" height="76" rx="38" fill="white"/>
<mask id="mask0" mask-type="alpha" maskUnits="userSpaceOnUse" x="19" y="16" width="38" height="43">
<path d="M19 36.04C19 33.6797 19.9258 31.4135 21.5786 29.7284L31.5498 19.5616C35.0836 15.9585 40.8868 15.9585 44.4206 19.5616L54.3919 29.7284C56.0446 31.4135 56.9704 33.6797 56.9704 36.04V49.4016C56.9704 54.3799 52.9347 58.4156 47.9564 58.4156H28.014C23.0357 58.4156 19 54.3799 19 49.4016V36.04Z" fill="#C4C4C4"/>
</mask>
<g mask="url(#mask0)">
<path d="M17.5112 24.0362V56.6009C17.5112 57.5563 18.2924 58.3307 19.2478 58.3307C19.7288 58.3307 20.1909 58.1297 20.5202 57.779C26.164 51.7681 31.2429 47.4657 37.6119 42.5982C38.1253 42.2059 38.3848 41.5606 38.2505 40.9286C36.7453 33.845 32.3814 26.4913 29.8965 23.0023C29.5812 22.5596 29.068 22.3063 28.5245 22.3063H19.2411C18.2857 22.3063 17.5112 23.0808 17.5112 24.0362Z" fill="#024842"/>
<path d="M41.107 44.6565C37.3528 47.1299 32.1573 51.7616 28.4371 55.279C27.2613 56.3907 28.056 58.3313 29.6742 58.3313H55.1021C56.1053 58.3313 56.9185 57.5181 56.9185 56.5149V41.4457C56.9185 40.1914 55.6792 39.3142 54.4978 39.7356C50.3818 41.2035 44.3765 43.3639 41.439 44.4867C41.3205 44.5319 41.2129 44.5867 41.107 44.6565Z" fill="#E6CFC9"/>
<path d="M40.2155 38.7255C37.5678 30.3946 33.799 24.2717 31.4219 20.7834C30.9196 20.0462 31.0097 19.0558 31.6476 18.4322L52.3797 -1.83222C53.5042 -2.93136 55.3992 -2.17941 55.4642 -0.608294L56.8656 33.2895C56.8975 34.061 56.4391 34.7684 55.7201 35.05C52.2103 36.4246 46.3917 38.6411 42.4916 39.9284C41.5336 40.2446 40.5211 39.687 40.2155 38.7255Z" fill="#DB764A"/>
</g>
</svg>
