<svg width="151" height="23" viewBox="0 0 151 23" fill="none" xmlns="http://www.w3.org/2000/svg">
<g clip-path="url(#clip0)">
<path d="M27.9983 21.4637C27.8811 21.4637 27.7638 21.4637 27.6465 21.4804C27.6465 15.616 27.6465 9.75161 27.6465 3.88721C27.7638 3.88721 27.8811 3.90396 27.9983 3.90396C28.2832 4.22232 28.2664 4.62445 28.2664 4.99307C28.2664 10.1202 28.2664 15.2306 28.2664 20.3578C28.2664 20.7599 28.2832 21.1621 27.9983 21.4637Z" fill="#024842"/>
<path d="M62.4474 7.37235C63.6706 7.59017 64.6926 8.1431 65.4634 9.11492C65.7985 9.55056 66.0498 9.71812 66.4855 9.13168C67.9097 7.25507 69.8198 6.95347 71.998 7.60693C73.9919 8.19337 75.0475 9.58407 75.5334 11.5109C75.6507 11.9633 75.768 12.4157 75.768 12.8849C75.7512 15.5155 75.7512 18.1461 75.7847 20.76C75.7847 21.3464 75.6172 21.5139 75.0307 21.4972C73.5563 21.4469 73.7908 21.648 73.7908 20.2573C73.7573 17.5764 73.7908 14.8955 73.7238 12.2147C73.6903 10.7067 72.4336 9.38301 70.9759 9.1987C69.0826 8.94736 67.8594 9.78514 67.1557 11.2093C66.8876 11.7455 66.8206 12.2985 66.8373 12.8849C66.8541 15.5155 66.8038 18.1461 66.8708 20.76C66.8876 21.4804 66.5692 21.5307 66.0331 21.4637C65.5639 21.3967 64.8937 21.7653 64.9105 20.76C64.944 17.945 64.8602 15.1134 64.8937 12.2985C64.9105 10.7905 63.7208 9.63434 62.3301 9.21545C61.0735 8.83008 59.4649 9.43327 58.6607 10.5726C58.2083 11.2093 57.957 11.9131 57.957 12.7006C57.9737 15.3815 57.9234 18.0623 57.9905 20.7432C58.0072 21.5475 57.6051 21.4804 57.0857 21.4637C56.5663 21.4469 56.0803 21.5977 56.0971 20.7264C56.1474 16.5543 56.1139 12.3822 56.1306 8.19337C56.1306 7.90853 55.9966 7.48964 56.3987 7.42262C56.8846 7.3556 57.4543 7.23831 57.8564 7.5064C58.0407 7.64044 57.9737 8.1431 58.0407 8.56199C58.845 7.92528 59.6493 7.42262 60.6211 7.32209C61.2075 7.17129 61.8275 7.13778 62.4474 7.37235Z" fill="#024842"/>
<path d="M97.9936 13.2073C97.5579 8.95146 100.373 5.49984 103.858 4.14265C105.399 3.53945 107.042 3.57296 108.667 3.77403C108.918 4.00861 109.287 3.8243 109.538 4.05887C111.616 4.47776 113.09 5.76793 114.364 7.32618C114.447 7.42672 114.514 7.56076 114.447 7.71156C114.163 8.31475 112.973 8.49906 112.537 7.9964C110.594 5.70091 107.259 4.81287 104.31 6.0025C101.78 7.02459 100.339 8.86768 99.9372 11.5318C99.5351 14.2797 100.406 16.5082 102.601 18.234C105.265 20.3284 109.957 20.2614 112.47 17.2454C112.973 16.6422 113.945 16.7595 114.397 17.4465C114.565 17.7146 114.364 17.7816 114.246 17.9156C112.839 19.742 111.013 20.8981 108.717 21.3337C104.729 22.0877 101.697 20.6132 99.3843 17.4632C98.8313 16.7092 98.3287 15.8715 98.2617 14.8829C98.0103 14.3635 98.2784 13.7268 97.9936 13.2073Z" fill="#024842"/>
<path d="M86.5418 8.59564C87.9325 7.406 89.4572 7.0709 91.1495 7.42276C92.8921 7.77462 94.5006 9.21559 95.0871 11.0419C95.5059 12.3824 95.3216 13.706 95.3551 15.0465C95.4054 16.9566 95.3384 18.8667 95.3887 20.7601C95.4054 21.3298 95.2714 21.5308 94.6682 21.4973C93.4953 21.4638 93.4953 21.4973 93.4953 20.3077C93.4953 17.8279 93.4953 15.3313 93.4785 12.8515C93.4785 11.31 92.8753 10.1204 91.3841 9.46692C89.1054 8.47835 86.525 10.0701 86.4915 12.5499C86.458 15.2811 86.4412 18.029 86.5083 20.7601C86.525 21.6481 86.0391 21.4806 85.5197 21.4973C84.9835 21.5141 84.6149 21.5476 84.6317 20.7601C84.6819 16.7053 84.6317 12.6337 84.6819 8.57889C84.6819 8.19351 84.2295 7.45627 85.2181 7.42276C86.4077 7.37249 86.4077 7.35574 86.5418 8.59564Z" fill="#024842"/>
<path d="M132.887 8.84665C134.245 7.55649 135.853 7.33866 137.579 7.40569C138.35 7.4392 138.132 7.95862 138.132 8.34399C138.132 8.72937 138.367 9.29905 137.579 9.26554C136.892 9.24878 136.188 9.24878 135.501 9.41634C133.943 9.78496 132.82 11.0919 132.804 12.6836C132.787 15.3645 132.753 18.0454 132.82 20.7263C132.837 21.5808 132.385 21.4803 131.849 21.4803C131.329 21.4803 130.944 21.564 130.944 20.7598C130.994 16.6212 130.961 12.4658 130.977 8.31048C130.977 7.89159 130.776 7.30515 131.614 7.38893C132.217 7.4392 132.988 7.18787 132.804 8.27697C132.787 8.44452 132.854 8.61208 132.887 8.84665Z" fill="#024842"/>
<path d="M79.3369 14.4265C79.3369 12.332 79.3536 10.2209 79.3201 8.12643C79.3034 7.53999 79.4877 7.32217 80.0741 7.40595C80.5265 7.47297 81.1465 7.12111 81.1465 8.05941C81.113 12.3488 81.1297 16.6214 81.1465 20.9108C81.1465 21.4303 80.9287 21.4805 80.5098 21.4805C79.3536 21.4805 79.3536 21.4973 79.3536 20.3914C79.3369 18.3975 79.3369 16.4204 79.3369 14.4265Z" fill="#024842"/>
<path d="M81.6827 4.69173C81.6995 5.42897 80.9455 6.18296 80.2083 6.16621C79.4878 6.16621 78.7841 5.46248 78.7841 4.72524C78.7673 3.90422 79.337 3.31778 80.158 3.30103C81.0293 3.30103 81.666 3.87071 81.6827 4.69173Z" fill="#024842"/>
<path d="M98.0864 13.354C98.6728 13.8232 98.3209 14.4599 98.388 15.0295C97.9691 14.5269 98.0528 13.9404 98.0864 13.354Z" fill="#024842"/>
<path d="M44.5359 17.6602C44.0333 16.923 43.983 16.1523 44.4019 15.3647C44.2511 16.1523 44.3851 16.9062 44.5359 17.6602Z" fill="#024842"/>
<path fill-rule="evenodd" clip-rule="evenodd" d="M27.948 10.623L27.9983 21.4637C28.08 21.47 28.1641 21.4692 28.2478 21.4684C28.3874 21.4671 28.5261 21.4658 28.6517 21.4972C29.4392 21.6145 29.7408 21.3967 29.7073 20.5087C29.6608 19.401 29.6659 18.2985 29.6711 17.1954C29.6753 16.3129 29.6794 15.43 29.6571 14.5437C29.6403 13.7395 29.9084 13.5216 30.6624 13.5887C31.3661 13.6389 32.0698 13.6222 32.7568 13.5887C33.293 13.5552 33.6113 13.7227 33.8794 14.2086C34.7195 15.6733 35.5734 17.1242 36.4323 18.5835C36.9096 19.3945 37.3884 20.2081 37.8672 21.0281C37.8936 21.0733 37.9148 21.1252 37.9366 21.1782C38.0115 21.3611 38.0916 21.5567 38.4034 21.5307C38.8406 21.4953 39.2862 21.5015 39.7695 21.5083C39.9714 21.5111 40.18 21.514 40.3973 21.514C40.3081 21.37 40.233 21.2512 40.1673 21.1474C40.0725 20.9975 39.9974 20.8788 39.9281 20.76C38.571 18.5651 37.2139 16.3535 35.8568 14.1419L35.8566 14.1416C35.8327 14.1045 35.8042 14.0665 35.7757 14.0284C35.624 13.8263 35.4715 13.623 36.0074 13.5384C37.7332 13.2368 39.6768 11.6953 39.8611 9.23225C39.8611 8.84688 39.7941 8.26044 39.7941 8.26044L39.6936 7.94208C39.2077 5.42877 37.3981 3.93753 34.8177 3.92078C33.2992 3.90961 31.7881 3.91333 30.2745 3.91705C29.5168 3.91891 28.7585 3.92078 27.9983 3.92078C27.9927 4.66111 27.9853 5.40329 27.9779 6.1461C27.9629 7.6392 27.948 9.13481 27.948 10.623ZM31.9024 11.8424C32.1705 11.8442 32.4385 11.8461 32.7066 11.8461L32.7067 11.8461C33.5947 11.8293 34.4827 11.8126 35.3875 11.8293C35.5514 11.839 35.671 11.7654 35.7908 11.6916C35.8792 11.6371 35.9678 11.5826 36.0745 11.5613C37.3311 11.2764 38.2192 9.71815 38.0516 8.3107C37.9176 7.12106 36.7614 5.98169 35.488 5.8644C34.3962 5.76042 33.3108 5.77259 32.2239 5.78478C31.5594 5.79224 30.8943 5.7997 30.2268 5.78063C29.8079 5.76387 29.6906 5.96494 29.6906 6.33355C29.7074 7.99234 29.7074 9.65113 29.6906 11.3099C29.6906 11.7623 29.8917 11.8628 30.2938 11.8461C30.83 11.8349 31.3662 11.8386 31.9024 11.8424Z" fill="#024842"/>
<path fill-rule="evenodd" clip-rule="evenodd" d="M122.549 21.6479C123.806 21.3798 125.029 21.0447 125.85 20.0226C126.07 20.1169 126.069 20.2554 126.068 20.3828C126.068 20.3913 126.068 20.3996 126.068 20.408C126.165 21.4812 126.168 21.4813 127.195 21.511C127.226 21.5119 127.258 21.5128 127.291 21.5138C127.894 21.5306 128.012 21.3463 128.012 20.7766C127.986 18.7783 127.99 16.7895 127.993 14.803C127.994 14.1411 127.995 13.4794 127.995 12.8178C127.995 12.1978 127.928 11.6114 127.743 11.0249C127.073 8.84672 125.063 7.27171 122.65 7.28846C120.22 7.28846 118.578 8.4781 117.523 10.7233C117.472 10.8239 117.456 11.0752 117.489 11.0919C117.556 11.1218 117.623 11.1524 117.689 11.1828C118.068 11.3575 118.437 11.5276 118.88 11.5276C119.261 11.5276 119.341 11.3465 119.463 11.0702C119.47 11.0554 119.476 11.0403 119.483 11.0249C120.12 9.63422 121.896 8.82996 123.471 9.21534C124.627 9.48343 126.051 10.6563 126.051 12.2983C126.051 12.8178 125.967 13.0356 125.398 13.0188C124.492 12.9965 123.579 13.0039 122.669 13.0114C122.215 13.0151 121.761 13.0188 121.309 13.0188C120.153 13.0188 119.165 13.5382 118.36 14.2587C117.037 15.4484 116.769 17.8444 117.707 19.4194C118.696 21.0782 120.907 22.0165 122.549 21.6479ZM124.711 14.8787H123.622V14.8452C123.353 14.8564 123.085 14.8731 122.817 14.8899C122.281 14.9234 121.745 14.9569 121.209 14.9457C120.103 14.929 119.198 16.1018 119.148 17.0066C119.064 18.2298 119.751 19.2351 120.924 19.4864C123.303 19.9891 125.18 19.0843 125.967 16.6548C126.403 15.2976 126.101 14.8787 124.711 14.8787Z" fill="#024842"/>
<path fill-rule="evenodd" clip-rule="evenodd" d="M142.605 15.3649H146.442C147.113 15.3649 147.783 15.3816 148.453 15.3984C148.708 15.3877 148.985 15.4176 149.26 15.4472C149.853 15.511 150.439 15.5741 150.782 15.2308C151.087 14.9143 151.026 14.3539 150.965 13.786C150.935 13.5121 150.905 13.2364 150.916 12.9856C151.067 10.0199 148.771 7.52331 145.839 7.32224C143.024 7.13793 140.394 9.19885 140.243 12.0473C140.187 13.2201 140.189 14.393 140.192 15.5659C140.192 15.8005 140.193 16.0351 140.193 16.2696C140.193 17.1744 140.31 18.0457 140.779 18.85C142.136 21.179 144.063 22.0335 146.828 21.5141C148.637 21.1622 149.777 19.9726 150.531 18.3808C150.614 18.2133 150.648 17.9619 150.581 17.8111C150.38 17.409 148.855 17.5431 148.621 17.9619C147.716 19.537 146.09 20.2072 144.415 19.6878C142.873 19.2018 141.868 17.5598 142.019 15.834C142.052 15.3984 142.253 15.3649 142.605 15.3649ZM144.432 13.5514C144.756 13.5533 145.08 13.5551 145.404 13.5551H148.42C148.455 13.5551 148.494 13.5571 148.533 13.559C148.753 13.5701 149.006 13.5829 149.006 13.2703C149.006 13.1735 149.007 13.0762 149.009 12.9785C149.017 12.3655 149.025 11.7395 148.721 11.1759C147.766 9.38302 146.275 8.79658 144.147 9.36627C142.89 9.70137 141.919 11.4104 142.019 13.086C142.036 13.4378 142.12 13.5551 142.488 13.5551C143.136 13.544 143.784 13.5477 144.432 13.5514Z" fill="#024842"/>
<path fill-rule="evenodd" clip-rule="evenodd" d="M49.5625 21.4134C50.9365 20.9275 52.1429 20.073 52.5953 18.5315C52.7461 18.2467 52.7963 17.9618 52.5785 17.677C52.478 17.677 52.3607 17.6602 52.2601 17.6435C52.1897 17.6229 52.1192 17.5982 52.0488 17.5736C51.7176 17.4576 51.3884 17.3424 51.0705 17.6602C50.4003 18.9671 49.4117 19.7882 47.8535 19.8049C46.2785 19.8049 45.2061 19.0509 44.5526 17.6602C44.2175 16.923 44.2008 16.1522 44.4186 15.3647H51.5229C52.3496 15.3647 52.7562 15.3647 52.964 15.1615C53.1774 14.9528 53.1813 14.5298 53.2152 13.6724C53.2655 12.0639 52.9806 10.5894 51.9921 9.2825C50.5176 7.33887 47.4681 6.75243 45.3402 7.82478C43.7987 8.59553 42.7431 9.8857 42.542 11.6115C42.4116 12.7586 42.4233 13.926 42.4349 15.0899C42.4382 15.4222 42.4415 15.7541 42.4415 16.0852C42.4415 17.0235 42.542 17.9451 42.9944 18.7996C44.1338 20.961 46.8146 22.3853 49.5625 21.4134ZM47.4179 9.16524C46.044 9.29929 45.1727 10.07 44.536 11.1927C44.2991 11.6797 44.2896 12.1978 44.2802 12.7144C44.2777 12.8553 44.2751 12.9962 44.2679 13.1363C44.2679 13.5049 44.4522 13.5887 44.7873 13.5887H50.635C50.9701 13.5887 51.2047 13.5217 51.2047 13.153C51.2001 12.9736 51.2094 12.7917 51.2187 12.6093C51.2433 12.1274 51.2681 11.6424 51.0371 11.1927C50.2328 9.8187 49.1102 9.01444 47.4179 9.16524Z" fill="#024842"/>
<path d="M44.536 11.1926C44.5193 11.8126 44.2344 12.399 44.3015 13.0525C44.335 13.4043 44.4187 13.5216 44.7874 13.5216C46.731 13.5049 48.6746 13.5049 50.6015 13.5216C50.9869 13.5216 51.1544 13.4211 51.1209 13.0022C51.0706 12.399 51.0539 11.7958 51.0204 11.1926C51.6403 11.8461 51.389 12.6503 51.3722 13.3876C51.3722 13.7059 51.0036 13.6724 50.769 13.6724C48.7752 13.6724 46.7645 13.6724 44.7706 13.6892C44.3182 13.6892 44.0836 13.5216 44.1339 13.0525C44.2344 12.4325 43.9663 11.7288 44.536 11.1926Z" fill="#024842"/>
</g>
<mask id="mask0" mask-type="alpha" maskUnits="userSpaceOnUse" x="0" y="1" width="19" height="22">
<path d="M0 10.7136C0 9.98963 0.283955 9.29458 0.790859 8.77774L7.42601 2.01249C8.50985 0.907397 10.2897 0.907399 11.3736 2.01249L18.0087 8.77774C18.5156 9.29458 18.7996 9.98963 18.7996 10.7136V19.7211C18.7996 21.248 17.5618 22.4858 16.0349 22.4858H2.76465C1.23778 22.4858 0 21.248 0 19.7211V10.7136Z" fill="#C4C4C4"/>
</mask>
<g mask="url(#mask0)">
<path d="M-0.206735 22.4438H0.266045C0.413579 22.4438 0.554842 22.3818 0.655601 22.274C3.53529 19.194 6.10819 17.0218 9.37235 14.5342C9.52996 14.414 9.60913 14.2161 9.5707 14.0217C8.84741 10.363 6.53152 6.51694 5.29914 4.81925C5.20122 4.68434 5.04482 4.60767 4.87812 4.60767H-0.206735C-0.499761 4.60767 -0.737305 4.84521 -0.737305 5.13824V21.9132C-0.737305 22.2062 -0.499761 22.4438 -0.206735 22.4438Z" fill="#024842"/>
<path d="M10.9749 15.6539C8.90313 17.0117 5.92785 19.7189 4.0735 21.5038C3.71591 21.848 3.96216 22.444 4.45848 22.444H18.2165C18.5242 22.444 18.7736 22.1946 18.7736 21.8869V13.5993C18.7736 13.2146 18.394 12.9454 18.0315 13.0744C15.9934 13.7998 12.6291 15.0075 11.0762 15.6021C11.0398 15.616 11.0074 15.6326 10.9749 15.6539Z" fill="#E6CFC9"/>
<path d="M10.6066 13.0663C9.2304 8.57202 7.17526 5.33366 5.98497 3.61322C5.8293 3.38822 5.85752 3.08459 6.05318 2.89335L17.0758 -7.88068C17.4207 -8.2178 18.002 -7.98717 18.0219 -7.5053L18.7575 10.2882C18.7673 10.5248 18.6264 10.7419 18.406 10.8285C16.6061 11.5364 13.3013 12.7992 11.3017 13.4395C11.007 13.5339 10.6972 13.3622 10.6066 13.0663Z" fill="#DB764A"/>
</g>
<defs>
<clipPath id="clip0">
<rect width="123.354" height="18.4142" fill="white" transform="translate(27.6465 3.31763)"/>
</clipPath>
</defs>
</svg>
