<svg width="1440" height="729" viewBox="0 0 1440 729" fill="none" xmlns="http://www.w3.org/2000/svg">
<mask id="mask0" mask-type="alpha" maskUnits="userSpaceOnUse" x="0" y="0" width="1440" height="729">
<rect width="1440" height="729" fill="#E6CFC9"/>
</mask>
<g mask="url(#mask0)">
<g opacity="0.4">
<path d="M-6.5 755L102.636 702.176C102.878 702.059 103.111 701.922 103.331 701.768L154.491 665.857C154.829 665.62 155.136 665.342 155.406 665.029L211 600.5L357.5 414C387 375 456.5 290.2 498.5 263C500.875 261.273 502.775 259.759 504.151 258.6C505.625 257.36 506.091 255.344 505.449 253.527L492.143 215.905C492.048 215.635 491.93 215.375 491.79 215.126L480.5 195L454.364 159.988C454.122 159.664 453.842 159.37 453.529 159.114L415.292 127.74C415.098 127.58 414.916 127.406 414.747 127.219L316 17.5L275.5 -37" stroke="#E6CFC9" stroke-width="2"/>
<path d="M418.036 260.464L402.962 275.538C402.163 276.337 402.184 277.64 403.01 278.413L415.545 290.139C416.35 290.892 417.611 290.852 418.367 290.051L432.213 275.365C432.937 274.597 432.94 273.4 432.22 272.628L420.913 260.513C420.14 259.686 418.836 259.664 418.036 260.464Z" stroke="#E6CFC9" stroke-width="2"/>
<path d="M394.83 346.947L368.176 311.562C367.522 310.693 367.681 309.462 368.535 308.789L375.055 303.641C375.872 302.996 377.046 303.085 377.756 303.846L382.48 308.907C383.085 309.555 384.044 309.728 384.837 309.332L387.023 308.238C387.88 307.81 388.921 308.05 389.505 308.81L410.237 335.853C410.927 336.753 410.732 338.045 409.808 338.701L397.585 347.375C396.703 348.001 395.482 347.812 394.83 346.947Z" stroke="#E6CFC9" stroke-width="2"/>
<path d="M364.121 313.176C356.92 319.305 345.439 328.898 339.585 333.236C338.222 334.245 337.648 337.478 338.734 338.78L354.812 358.074C355.482 358.878 356.659 359.029 357.511 358.421L361.396 355.645C362.286 355.01 363.521 355.207 364.169 356.086L368.863 362.457C369.499 363.32 369.342 364.53 368.507 365.202L351.118 379.198C350.234 379.909 348.937 379.744 348.26 378.834L315.695 335.105C315.035 334.218 315.219 332.965 316.105 332.306L334.477 318.634C335.33 317.998 335.537 316.805 334.947 315.92L332.071 311.607C331.474 310.71 331.693 309.502 332.568 308.873L345.711 299.427C346.466 298.884 347.495 298.933 348.195 299.546L349.82 300.968C350.513 301.574 351.53 301.629 352.284 301.101L354.366 299.644C355.269 299.012 356.514 299.23 357.148 300.132L364.452 310.511C365.046 311.355 364.907 312.507 364.121 313.176Z" stroke="#E6CFC9" stroke-width="2"/>
<path d="M360.09 243.933L353.687 236.819C353.01 236.067 353.002 234.926 353.669 234.164L358.092 229.109C358.854 228.238 360.194 228.194 361.012 229.012L368.086 236.086C368.867 236.867 368.867 238.133 368.086 238.914L362.991 244.009C362.18 244.82 360.856 244.785 360.09 243.933Z" stroke="#E6CFC9" stroke-width="2"/>
<path d="M295.862 292.728L291.112 296.291C290.224 296.957 290.048 298.22 290.721 299.103L296.259 306.371C296.94 307.264 298.222 307.422 299.099 306.721L303.521 303.183C304.351 302.52 304.517 301.323 303.899 300.459L298.69 293.166C298.037 292.252 296.761 292.055 295.862 292.728Z" stroke="#E6CFC9" stroke-width="2"/>
<path d="M285.132 352.588C279.084 359.595 269.422 370.634 265.089 375.079C264.122 376.071 264.058 378.008 265.062 378.964L303.587 415.654C304.373 416.403 305.613 416.387 306.38 415.62L317.086 404.914C317.867 404.133 319.133 404.133 319.914 404.914L321.086 406.086C321.867 406.867 323.133 406.867 323.914 406.086L332.547 397.453C333.343 396.657 333.326 395.361 332.508 394.587L288.023 352.443C287.194 351.658 285.878 351.724 285.132 352.588Z" stroke="#E6CFC9" stroke-width="2"/>
<path d="M273.158 431.445L262.964 442.423C262.188 443.259 262.323 444.588 263.251 445.251C264.179 445.914 264.315 447.24 263.54 448.077L253.884 458.505C253.124 459.326 253.185 460.611 254.021 461.356L269.478 475.142C270.314 475.888 271.599 475.802 272.327 474.951L293.731 449.98C294.437 449.157 294.358 447.921 293.553 447.194L275.964 431.321C275.152 430.588 273.902 430.644 273.158 431.445Z" stroke="#E6CFC9" stroke-width="2"/>
<path d="M231.663 524.582L224.365 520.932C223.348 520.424 222.959 519.171 223.509 518.176L234.615 498.1C235.116 497.194 236.225 496.82 237.172 497.238L250.631 503.175C251.657 503.628 252.11 504.835 251.636 505.851L249.846 509.688C249.379 510.689 249.811 511.879 250.812 512.346L254.623 514.124C255.649 514.603 256.073 515.837 255.559 516.845L244.864 537.806C244.38 538.755 243.237 539.158 242.265 538.722L231.455 533.876C230.397 533.402 229.963 532.132 230.508 531.11L232.534 527.312C233.063 526.319 232.67 525.085 231.663 524.582Z" stroke="#E6CFC9" stroke-width="2"/>
<path d="M220.616 527.747L216.728 526.191C215.754 525.802 214.645 526.231 214.187 527.175L207.429 541.087C206.926 542.124 207.401 543.371 208.467 543.81L213.158 545.742C214.177 546.161 215.342 545.678 215.766 544.662L221.72 530.373C222.149 529.343 221.652 528.161 220.616 527.747Z" stroke="#E6CFC9" stroke-width="2"/>
<path d="M201.788 548.144L190.358 542.429C189.344 541.922 188.111 542.359 187.642 543.392L172.327 577.176C171.87 578.183 172.318 579.369 173.325 579.824L185.169 585.173C186.179 585.629 187.367 585.177 187.818 584.165L202.721 550.748C203.157 549.77 202.746 548.623 201.788 548.144Z" stroke="#E6CFC9" stroke-width="2"/>
<path d="M154.87 577.338L140.037 555.524C139.451 554.663 139.624 553.497 140.435 552.843L152.937 542.76C153.799 542.065 155.062 542.203 155.754 543.068L157.309 545.012C157.976 545.845 157.871 547.055 157.071 547.761L151.356 552.803C150.586 553.483 150.456 554.635 151.055 555.469L162.81 571.842C163.463 572.752 163.241 574.022 162.318 574.656L157.657 577.861C156.743 578.489 155.493 578.254 154.87 577.338Z" stroke="#E6CFC9" stroke-width="2"/>
<path d="M131.696 550.388L128.382 552.937C127.59 553.546 127.369 554.647 127.865 555.514L137.955 573.17C138.523 574.165 139.809 574.48 140.773 573.861L144.391 571.534C145.291 570.956 145.576 569.771 145.039 568.847L134.644 550.968C134.038 549.925 132.652 549.652 131.696 550.388Z" stroke="#E6CFC9" stroke-width="2"/>
<path d="M154.621 586.575L152.187 587.589C151.043 588.065 150.604 589.456 151.265 590.503L154.944 596.329C155.529 597.255 156.751 597.538 157.684 596.964L160.558 595.195C161.587 594.562 161.824 593.168 161.062 592.23L156.942 587.16C156.383 586.472 155.439 586.234 154.621 586.575Z" stroke="#E6CFC9" stroke-width="2"/>
<path d="M146.48 654.714L129.893 640.679C129.104 640.011 128.954 638.852 129.546 638.005L131.038 635.875C131.594 635.08 131.5 634 130.814 633.314L129.848 632.348C129.094 631.594 129.065 630.379 129.783 629.589L132.519 626.579C133.104 625.936 134.036 625.744 134.827 626.103L137.502 627.319C138.372 627.715 139.401 627.439 139.957 626.661L142.81 622.666C143.463 621.752 144.739 621.555 145.638 622.228L148.4 624.3C149.284 624.963 150.537 624.784 151.2 623.9L155.193 618.576C155.681 617.925 155.726 617.044 155.308 616.347L155.242 616.236C154.799 615.498 154.878 614.559 155.438 613.906L165.205 602.511C165.921 601.675 167.178 601.575 168.017 602.287L181.47 613.702C182.314 614.418 182.416 615.684 181.698 616.526L149.293 654.485C148.578 655.323 147.32 655.425 146.48 654.714Z" stroke="#E6CFC9" stroke-width="2"/>
<path d="M121.771 607.653L119.126 609.416C118.222 610.019 117.964 611.233 118.545 612.151L125.905 623.77C126.505 624.719 127.769 624.987 128.704 624.364L137.165 618.723C138.148 618.068 138.352 616.707 137.603 615.793L131.319 608.113C130.6 607.233 129.292 607.129 128.443 607.884L127.289 608.91C126.387 609.712 124.969 609.439 124.429 608.359C123.936 607.372 122.689 607.041 121.771 607.653Z" stroke="#E6CFC9" stroke-width="2"/>
<path d="M-7 772.5C-3.01417 771.703 66.5049 740.39 101.132 724.667C101.384 724.553 101.615 724.423 101.845 724.268L124.76 708.86C127.587 706.958 131.446 708.38 132.365 711.661L137.315 729.339C137.438 729.777 137.5 730.231 137.5 730.687V803" stroke="#E6CFC9" stroke-width="2"/>
<path d="M148 799.5V733.934C148 733.645 147.975 733.357 147.925 733.072L144.602 714.083C144.534 713.696 144.421 713.318 144.265 712.957L139.66 702.332C138.699 700.113 139.463 697.525 141.475 696.184L167.43 678.88C167.808 678.628 168.15 678.325 168.447 677.98L188.275 654.924C189.065 654.006 190.161 653.406 191.359 653.234L209.907 650.585C210.301 650.528 210.687 650.425 211.057 650.277L230.055 642.678C230.351 642.56 230.635 642.413 230.903 642.241L589.873 411.403C590.289 411.136 590.662 410.808 590.982 410.431L768.736 200.811C768.912 200.604 769.068 200.388 769.207 200.154C772.141 195.222 777.229 185.819 778.929 179.809C779.483 177.848 780.714 176.009 782.606 175.251C803.735 166.79 854.259 147.18 878 138L1061 50.5L1219.5 -37.5" stroke="#E6CFC9" stroke-width="2"/>
<path d="M443 337C379.553 416.574 265.408 559.383 219.692 615.471C216.109 619.868 224.078 632.383 228.61 628.972C229.409 628.371 230.102 627.803 230.678 627.291C230.896 627.097 231.123 626.921 231.369 626.763L583.347 400.919C583.78 400.641 584.167 400.299 584.495 399.903L755.59 193.652C758.78 189.807 755.011 184.18 750.257 185.715C671.483 211.139 536.015 256.705 517 270.5C496.6 285.3 459.167 321 443 337Z" stroke="#E6CFC9" stroke-width="2"/>
<path d="M288.5 -38.5L332.5 18.5L388.5 80L425.5 118.5L459.5 151C466.833 159.5 482.6 178.3 487 185.5C492.226 194.051 504.222 211.63 513.126 244.67C513.892 247.516 516.866 249.175 519.648 248.205C551.51 237.098 688.229 189.461 757 165.5C803.5 147 902.8 107 928 95C952.585 83.2927 1076.25 18.284 1139.38 -15.0597C1141.91 -16.396 1142.77 -19.5618 1141.31 -22.0203L1131.5 -38.5" stroke="#E6CFC9" stroke-width="2"/>
<path d="M449.128 123.468C447.343 125.376 445.021 127.849 443.459 129.488C442.67 130.317 442.711 131.643 443.559 132.411L451.004 139.146C451.828 139.892 453.102 139.823 453.84 138.992L471.207 119.454C471.927 118.645 471.871 117.409 471.082 116.668L457.498 103.908C456.678 103.137 455.382 103.195 454.634 104.037L445.304 114.533C444.58 115.348 444.641 116.592 445.442 117.331L449.022 120.636C449.837 121.388 449.886 122.658 449.128 123.468Z" stroke="#E6CFC9" stroke-width="2"/>
<path d="M474.083 141.523L468.185 145.783C467.265 146.447 467.082 147.743 467.781 148.637L474.222 156.867C474.92 157.759 476.219 157.894 477.086 157.165L483.376 151.868C484.257 151.126 484.331 149.795 483.537 148.96L476.704 141.767C476.014 141.041 474.895 140.937 474.083 141.523Z" stroke="#E6CFC9" stroke-width="2"/>
<path d="M480.604 110.178L473.81 103.741C473.066 103.036 472.975 101.882 473.6 101.07L476.709 97.0282C477.162 96.44 477.107 95.6074 476.583 95.0827C475.991 94.4911 476.008 93.5267 476.621 92.9566L488.675 81.7336C489.427 81.0334 490.588 81.0171 491.359 81.696L500.88 90.0742C501.754 90.8435 501.789 92.194 500.955 93.0072L483.376 110.157C482.608 110.907 481.384 110.916 480.604 110.178Z" stroke="#E6CFC9" stroke-width="2"/>
<path d="M514.732 68.0561L499.237 50.4085C498.541 49.6162 498.58 48.4201 499.325 47.6746L505.532 41.4676C506.334 40.666 507.641 40.6902 508.412 41.5209L525.043 59.4314C525.831 60.28 525.736 61.6182 524.836 62.3468L517.493 68.291C516.659 68.9664 515.44 68.8627 514.732 68.0561Z" stroke="#E6CFC9" stroke-width="2"/>
<path d="M509.467 137.328L501.076 123.741C500.486 122.786 500.797 121.533 501.766 120.965L512.96 114.403C513.837 113.889 514.961 114.115 515.571 114.928L525.163 127.718C525.877 128.669 525.607 130.03 524.584 130.637L512.19 137.997C511.252 138.554 510.04 138.256 509.467 137.328Z" stroke="#E6CFC9" stroke-width="2"/>
<path d="M519.167 151.229L516.909 146.432C516.417 145.386 516.912 144.142 517.988 143.719L528.208 139.704C529.209 139.311 530.341 139.779 530.772 140.764L532.703 145.178C533.144 146.186 532.688 147.361 531.683 147.808L521.789 152.205C520.795 152.647 519.63 152.213 519.167 151.229Z" stroke="#E6CFC9" stroke-width="2"/>
<path d="M564.252 106.926L555.248 95.5741C554.56 94.7059 554.708 93.4433 555.58 92.7587L559.493 89.684C560.336 89.0221 561.55 89.1416 562.247 89.9551L571.654 100.929C572.39 101.788 572.268 103.086 571.384 103.792L567.068 107.245C566.203 107.937 564.94 107.794 564.252 106.926Z" stroke="#E6CFC9" stroke-width="2"/>
<path d="M555.635 227.678L547 209.5L546.653 208.922C546.039 207.898 546.453 206.567 547.541 206.072L554.84 202.754C555.781 202.327 556.892 202.686 557.404 203.583L557.569 203.871C558.093 204.787 559.237 205.139 560.185 204.675L580.254 194.854C581.226 194.379 581.644 193.216 581.196 192.23L580.333 190.332C579.874 189.322 580.325 188.132 581.338 187.679L601.411 178.71C602.322 178.303 603.394 178.63 603.923 179.476L606.825 184.119C607.453 185.125 607.073 186.454 606.008 186.976L585.263 197.137C584.284 197.616 583.869 198.791 584.33 199.779L589.667 211.215C590.129 212.205 589.711 213.383 588.728 213.86L558.314 228.619C557.315 229.105 556.111 228.682 555.635 227.678Z" stroke="#E6CFC9" stroke-width="2"/>
<path d="M614.099 178.828L609.045 169.442C608.485 168.401 608.944 167.105 610.034 166.648L627.797 159.213C628.759 158.81 629.868 159.214 630.347 160.14L636.675 172.401C637.144 173.31 638.223 173.719 639.177 173.348L644.455 171.295C645.552 170.869 646.045 169.59 645.519 168.537L632.482 142.463C631.955 141.41 632.448 140.131 633.545 139.705L638.817 137.654C639.773 137.283 640.855 137.694 641.322 138.608L650.597 156.736C651.097 157.713 652.291 158.105 653.272 157.614L656.656 155.922C657.665 155.417 658.892 155.847 659.366 156.871L673.185 186.739C673.639 187.72 673.231 188.884 672.265 189.368L664.704 193.148C663.75 193.625 662.589 193.27 662.066 192.34L659.442 187.674C658.916 186.739 657.745 186.386 656.789 186.874L636.83 197.066C635.827 197.578 634.6 197.162 634.115 196.146L625.359 177.8C624.884 176.805 623.694 176.382 622.698 176.854L616.717 179.687C615.755 180.143 614.604 179.765 614.099 178.828Z" stroke="#E6CFC9" stroke-width="2"/>
<path d="M553.261 293.169L543.186 268.201C542.798 267.238 543.21 266.139 544.135 265.669L571.167 251.932C572.171 251.421 573.398 251.841 573.88 252.858L581.155 268.215C581.623 269.205 581.21 270.387 580.226 270.868L560.239 280.649C559.27 281.123 558.852 282.282 559.295 283.266L562.135 289.579C562.605 290.623 562.104 291.848 561.037 292.264L555.841 294.284C554.82 294.681 553.671 294.184 553.261 293.169Z" stroke="#E6CFC9" stroke-width="2"/>
<path d="M529.444 291.916L521.668 280.252C521.033 279.299 519.729 279.074 518.81 279.757L481.084 307.822C480.206 308.475 480.016 309.713 480.658 310.599L488.814 321.863C489.467 322.764 490.73 322.959 491.625 322.297L528.971 294.633C529.827 293.998 530.036 292.803 529.444 291.916Z" stroke="#E6CFC9" stroke-width="2"/>
<path d="M466.38 334.714C459.413 339.929 448.27 348.207 443.811 351.312C442.851 351.98 442.52 353.356 443.127 354.356L449.362 364.626C449.973 365.632 451.316 365.895 452.262 365.195L475.903 347.683C476.787 347.028 476.976 345.783 476.328 344.896L469.195 335.135C468.537 334.235 467.272 334.046 466.38 334.714Z" stroke="#E6CFC9" stroke-width="2"/>
<path d="M523.608 390.79L519.531 382.976C518.98 381.921 519.467 380.622 520.575 380.188L528.235 377.191C529.225 376.803 530.345 377.258 530.784 378.226L534.187 385.711C534.638 386.704 534.211 387.876 533.226 388.345L526.241 391.671C525.269 392.134 524.106 391.744 523.608 390.79Z" stroke="#E6CFC9" stroke-width="2"/>
<path d="M352.416 493.288L345.068 481.686C344.478 480.754 344.753 479.521 345.684 478.929L364.437 466.994C365.319 466.433 366.484 466.646 367.111 467.482L375.219 478.291C375.912 479.216 375.68 480.535 374.711 481.167L355.198 493.893C354.264 494.502 353.012 494.23 352.416 493.288Z" stroke="#E6CFC9" stroke-width="2"/>
<path d="M245.486 610.27L238.94 599.104C238.41 598.2 238.668 597.04 239.532 596.445L266.907 577.597C267.795 576.985 269.009 577.188 269.65 578.055L275.625 586.14C276.35 587.121 276.036 588.516 274.962 589.092L264.851 594.508C263.844 595.048 263.492 596.321 264.08 597.3L264.963 598.772C265.535 599.724 265.221 600.96 264.264 601.524L248.227 610.981C247.274 611.544 246.046 611.225 245.486 610.27Z" stroke="#E6CFC9" stroke-width="2"/>
<path d="M286.931 578.821L285.537 576.63C284.959 575.721 285.204 574.517 286.093 573.907L308.498 558.531C309.349 557.947 310.505 558.106 311.166 558.899L313.537 561.745C314.312 562.674 314.09 564.073 313.066 564.717L289.684 579.44C288.753 580.026 287.522 579.75 286.931 578.821Z" stroke="#E6CFC9" stroke-width="2"/>
<path d="M273.849 621.397L270.22 624.468C269.506 625.072 269.306 626.089 269.737 626.917L274.511 636.099C275.046 637.127 276.34 637.487 277.329 636.883L282.66 633.625C283.653 633.018 283.92 631.694 283.24 630.75L276.764 621.755C276.082 620.809 274.739 620.644 273.849 621.397Z" stroke="#E6CFC9" stroke-width="2"/>
<path d="M776.684 148.577C773.461 141.051 767.945 128.925 764.548 123.905C763.835 122.852 763.957 121.282 764.974 120.52L767.029 118.978C768.045 118.216 769.505 118.582 770.042 119.732L771.651 123.182C772.12 124.185 773.314 124.617 774.315 124.146L779.147 121.872C780.163 121.394 780.586 120.173 780.084 119.168L778.315 115.63C777.882 114.765 776.789 114.474 775.983 115.011C775.19 115.54 774.113 115.267 773.668 114.423L766.037 99.9652C765.483 98.9149 765.961 97.6158 767.063 97.1747L768.06 96.776C769.117 96.353 769.609 95.1338 769.14 94.0958L763.839 82.3583C763.378 81.3378 763.845 80.1379 764.874 79.6968L768.321 78.2198C769.272 77.8122 770.377 78.1973 770.868 79.1078L782.659 100.943C783.139 101.832 784.207 102.223 785.148 101.855L792.917 98.8149C794.028 98.3803 794.514 97.0764 793.958 96.021L790.886 90.1827C790.389 89.2399 790.719 88.0737 791.636 87.5306L801.699 81.5672C802.68 80.9858 803.948 81.3411 804.484 82.3476L827.016 124.652C827.552 125.659 827.139 126.909 826.109 127.399L779.391 149.601C778.361 150.091 777.133 149.625 776.684 148.577Z" stroke="#E6CFC9" stroke-width="2"/>
<path d="M836.127 106.689C832.439 99.0528 826.598 87.0827 824.118 82.4217C823.558 81.3694 823.814 79.8488 824.745 79.1041L826.857 77.414C827.538 76.8697 827.788 75.9476 827.475 75.1343L826.135 71.6505C825.772 70.708 826.169 69.6431 827.06 69.1678L838.688 62.9663C839.681 62.4368 840.915 62.8302 841.418 63.8365L857.597 96.1944C858.094 97.1888 857.685 98.398 856.686 98.8859L838.807 107.617C837.811 108.104 836.609 107.688 836.127 106.689Z" stroke="#E6CFC9" stroke-width="2"/>
<path d="M822.18 175.384L790.716 190.667C789.755 191.133 789.331 192.272 789.751 193.253L794.161 203.543C794.616 204.604 795.871 205.061 796.901 204.541L847.684 178.917C848.682 178.413 849.073 177.189 848.552 176.2L840.374 160.66C839.883 159.727 838.75 159.335 837.787 159.766L822.406 166.647C821.367 167.112 820.925 168.349 821.434 169.367L823.095 172.69C823.593 173.686 823.182 174.897 822.18 175.384Z" stroke="#E6CFC9" stroke-width="2"/>
<path d="M858.594 178.248L852.91 167.26C852.406 166.285 852.781 165.086 853.751 164.573L858.641 161.984C859.652 161.449 860.906 161.869 861.389 162.906L866.677 174.236C867.135 175.218 866.728 176.386 865.759 176.871L861.265 179.118C860.286 179.607 859.096 179.219 858.594 178.248Z" stroke="#E6CFC9" stroke-width="2"/>
<path d="M896.476 184.283L881.452 159.097C880.916 158.197 881.165 157.035 882.023 156.434L888.756 151.721C889.701 151.059 891.008 151.332 891.61 152.316L895.01 157.88C895.565 158.788 896.734 159.103 897.669 158.596L906.415 153.859C907.316 153.371 908.44 153.642 909.018 154.488L919.797 170.242C920.449 171.195 920.162 172.499 919.17 173.09L899.217 184.977C898.269 185.542 897.042 185.232 896.476 184.283Z" stroke="#E6CFC9" stroke-width="2"/>
<path d="M912.616 73.7316L902.843 54.1867C902.37 53.2396 902.717 52.0874 903.634 51.559L916.692 44.041C917.678 43.4733 918.938 43.8413 919.464 44.8504L930.05 65.1758C930.57 66.1749 930.163 67.4065 929.15 67.8986L915.278 74.6362C914.293 75.1149 913.106 74.7115 912.616 73.7316Z" stroke="#E6CFC9" stroke-width="2"/>
<path d="M969.585 55.2755L958.46 34.31C957.934 33.3175 958.328 32.0861 959.333 31.5837L971.682 25.409C972.681 24.9093 973.896 25.3252 974.38 26.3324L984.648 47.7258C985.121 48.7103 984.716 49.8918 983.74 50.3801L972.246 56.127C971.275 56.6125 970.094 56.2346 969.585 55.2755Z" stroke="#E6CFC9" stroke-width="2"/>
<path d="M931 157.5C928.338 157.5 922.525 145.687 921.25 141.63C921.034 140.941 921.389 140.281 922.017 139.926L938.789 130.465C939.739 129.929 940.943 130.253 941.496 131.193L949.542 144.871C950.079 145.785 949.812 146.959 948.925 147.54C943.039 151.395 933.19 157.5 931 157.5Z" stroke="#E6CFC9" stroke-width="2"/>
<path d="M1008.49 115.931L997.973 99.5177C997.433 98.6751 997.667 97.5552 998.5 97L1030.37 76.5431C1031.28 75.9612 1032.49 76.2021 1033.1 77.0879L1039.88 86.8835C1040.5 87.7807 1040.29 89.0102 1039.4 89.6466L1023.16 101.309C1022.25 101.963 1022.05 103.237 1022.73 104.134L1024.61 106.651C1025.34 107.626 1025.04 109.023 1023.97 109.607L1011.14 116.608C1010.21 117.11 1009.06 116.815 1008.49 115.931Z" stroke="#E6CFC9" stroke-width="2"/>
</g>
<path d="M447.538 246.111L430.473 229.899C429.663 229.13 429.64 227.847 430.422 227.049L452.185 204.842C452.924 204.087 452.95 202.889 452.243 202.104L450.148 199.776C449.488 199.042 449.462 197.936 450.087 197.171L452.255 194.521C452.946 193.677 454.186 193.542 455.043 194.218L489.817 221.671C490.727 222.39 490.838 223.729 490.058 224.587L482.812 232.557C482.082 233.36 480.845 233.435 480.024 232.726L471.955 225.757C471.142 225.055 469.92 225.12 469.187 225.905L450.377 246.027C449.618 246.839 448.344 246.876 447.538 246.111Z" stroke="#DB764A" stroke-width="2"/>
<path fill-rule="evenodd" clip-rule="evenodd" d="M455 216.113C451.628 212.946 445.5 206.122 445.5 200.833C445.5 195.587 449.753 191.333 455 191.333C460.247 191.333 464.5 195.587 464.5 200.833C464.5 206.122 458.373 212.962 455 216.113Z" fill="#DB764A"/>
<path fill-rule="evenodd" clip-rule="evenodd" d="M455 188.167C448.005 188.167 442.333 193.838 442.333 200.833C442.333 209.383 453.496 219.042 453.971 219.453C454.564 219.96 455.437 219.96 456.029 219.453C456.583 219.042 467.667 209.383 467.667 200.833C467.667 193.838 461.996 188.167 455 188.167Z" fill="#DB764A"/>
<path fill-rule="evenodd" clip-rule="evenodd" d="M455 194.5C451.503 194.5 448.667 197.336 448.667 200.833C448.667 204.331 451.503 207.167 455 207.167C458.498 207.167 461.334 204.331 461.334 200.833C461.334 199.154 460.666 197.543 459.479 196.355C458.291 195.167 456.68 194.5 455 194.5Z" fill="#024842"/>
</g>
</svg>
