<svg viewBox="0 0 24 24" xmlns="http://www.w3.org/2000/svg">
<path fill-rule="evenodd" clip-rule="evenodd" d="M17.7102 11.29C17.5224 11.1007 17.2668 10.9942 17.0002 10.9942C16.7335 10.9942 16.478 11.1007 16.2902 11.29L13.0002 14.59V7C13.0002 6.44772 12.5525 6 12.0002 6C11.4479 6 11.0002 6.44772 11.0002 7V14.59L7.71019 11.29C7.31806 10.8979 6.68231 10.8979 6.29019 11.29C5.89806 11.6821 5.89806 12.3179 6.29019 12.71L11.2902 17.71C11.3853 17.801 11.4974 17.8724 11.6202 17.92C11.8622 18.027 12.1381 18.027 12.3802 17.92C12.5029 17.8724 12.6151 17.801 12.7102 17.71L17.7102 12.71C17.8995 12.5222 18.006 12.2666 18.006 12C18.006 11.7334 17.8995 11.4778 17.7102 11.29Z" />
</svg>
