<svg viewBox="0 0 24 24" xmlns="http://www.w3.org/2000/svg">
<path fill-rule="evenodd" clip-rule="evenodd" d="M15.2069 5H8.8276C6.71367 5 5 6.71367 5 8.8276V15.2069C5 17.3209 6.71367 19.0345 8.8276 19.0345H15.2069C17.3209 19.0345 19.0345 17.3209 19.0345 15.2069V8.8276C19.0345 6.71367 17.3209 5 15.2069 5ZM6.27585 8.82743C6.27585 7.41815 7.4183 6.2757 8.82759 6.2757H15.2069C16.6162 6.2757 17.7586 7.41815 17.7586 8.82743V15.2068C17.7586 16.616 16.6162 17.7585 15.2069 17.7585H8.82759C7.4183 17.7585 6.27585 16.616 6.27585 15.2068V8.82743ZM13.4794 14.8385C14.7086 14.2198 15.4024 12.8827 15.2005 11.5215C14.9944 10.1316 13.9031 9.0403 12.5132 8.8342C11.1521 8.63235 9.81491 9.32618 9.19626 10.5553C8.5776 11.7845 8.81693 13.2718 9.78994 14.2448C10.763 15.2178 12.2503 15.4571 13.4794 14.8385ZM12.3258 10.0965C13.1598 10.2201 13.8146 10.8749 13.9382 11.7088C14.0593 12.5255 13.643 13.3278 12.9055 13.699C12.1681 14.0702 11.2757 13.9266 10.6919 13.3428C10.1081 12.759 9.96445 11.8666 10.3356 11.1291C10.7068 10.3917 11.5091 9.97537 12.3258 10.0965ZM15.9775 8.9597C15.7284 9.20883 15.3245 9.20883 15.0754 8.9597C14.8262 8.71057 14.8262 8.30666 15.0754 8.05753C15.3245 7.8084 15.7284 7.8084 15.9775 8.05753C16.2267 8.30666 16.2267 8.71057 15.9775 8.9597Z" />
</svg>
